<?xml version="1.0" encoding="UTF-8" standalone="no"?>
<!-- Created with Inkscape (http://www.inkscape.org/) -->

<svg
   xmlns:dc="http://purl.org/dc/elements/1.1/"
   xmlns:cc="http://creativecommons.org/ns#"
   xmlns:rdf="http://www.w3.org/1999/02/22-rdf-syntax-ns#"
   xmlns:svg="http://www.w3.org/2000/svg"
   xmlns="http://www.w3.org/2000/svg"
   xmlns:sodipodi="http://sodipodi.sourceforge.net/DTD/sodipodi-0.dtd"
   xmlns:inkscape="http://www.inkscape.org/namespaces/inkscape"
   width="210"
   height="60"
   viewBox="0 0 210.00001 60.000001"
   id="svg4303"
   version="1.1"
   inkscape:version="0.91 r"
   sodipodi:docname="logo-takos-baru.svg"
   inkscape:export-filename="/home/ner46/Code/tanyakost-bootstrap/images/logo-takos-baru.png"
   inkscape:export-xdpi="90"
   inkscape:export-ydpi="90">
  <defs
     id="defs4305" />
  <sodipodi:namedview
     id="base"
     pagecolor="#ffffff"
     bordercolor="#666666"
     borderopacity="1.0"
     inkscape:pageopacity="0.0"
     inkscape:pageshadow="2"
     inkscape:zoom="2.1534538"
     inkscape:cx="122.55841"
     inkscape:cy="-0.13354861"
     inkscape:document-units="px"
     inkscape:current-layer="layer1"
     showgrid="false"
     units="px"
     inkscape:window-width="1330"
     inkscape:window-height="747"
     inkscape:window-x="36"
     inkscape:window-y="21"
     inkscape:window-maximized="1" />
  <metadata
     id="metadata4308">
    <rdf:RDF>
      <cc:Work
         rdf:about="">
        <dc:format>image/svg+xml</dc:format>
        <dc:type
           rdf:resource="http://purl.org/dc/dcmitype/StillImage" />
        <dc:title />
      </cc:Work>
    </rdf:RDF>
  </metadata>
  <g
     inkscape:label="Layer 1"
     inkscape:groupmode="layer"
     id="layer1"
     transform="translate(0,-992.36216)">
    <g
       id="g5019"
       transform="matrix(1.0598658,0,0,1.0598658,-4.5639352,-55.161816)"
       style="fill:#ffffff;stroke:#ffffff">
      <path
         id="path4327"
         d="m 93.117148,1030.0241 c 0,-1.0426 0.166813,-1.543 0.917475,-2.2937 0.792365,-0.7506 2.001763,-0.9591 3.086051,-0.5421 0.583845,0.2085 1.167694,0.7924 1.417913,1.2928 0.917475,1.6681 -0.08341,4.2537 -2.669018,4.2537 -1.417914,0 -2.752421,-1.2928 -2.752421,-2.7107 z m 2.877535,-29.0672 6.464027,5.6716 c 0.16681,0.2085 0.29192,0.2502 0.45873,0.4588 l 1.00088,0.8757 c 0.70896,0.6256 1.58473,1.2928 2.25199,1.9601 l 4.21204,3.7116 c 0.20852,0.1668 0.29192,0.2919 0.50044,0.4587 l 1.00088,0.8758 -4.9627,0 0,14.4294 -7.131282,0 c 0,-0.8758 -0.708959,-1.9601 -1.167694,-2.3771 -1.543023,-1.3345 -3.669896,-1.3345 -5.254626,0 -0.458736,0.417 -1.167695,1.5013 -1.167695,2.3771 l -7.131278,0 0,-14.4294 -4.962702,0 c 0.0417,-0.042 0.417034,-0.3753 0.458737,-0.417 l 2.210279,-1.9601 c 0.125111,-0.1251 0.166814,-0.1251 0.291924,-0.2085 l 3.461381,-3.0861 c 0.166813,-0.1668 0.291923,-0.2919 0.50044,-0.417 l 0.750661,-0.6672 c 0.08341,-0.1252 0.12511,-0.1252 0.25022,-0.2086 l 0.708958,-0.6672 c 0.12511,-0.083 0.166813,-0.083 0.25022,-0.2085 l 4.003525,-3.5031 c 0.166813,-0.1251 0.291923,-0.2919 0.458736,-0.4171 0.12511,-0.083 0.166813,-0.1668 0.250219,-0.2502 l 2.043466,-1.7515 c 0.08341,-0.1251 0.12511,-0.1668 0.250224,-0.2502 z m -17.473718,14.1374 c 0.08341,0.1251 0.25022,0.6256 0.291923,0.7924 l 5.338033,0 0,14.4293 8.048752,0 c 0,0.3754 0.25022,1.0009 0.375329,1.2929 0.20852,0.3753 0.45874,0.6672 0.750662,0.9591 1.417914,1.4596 3.920119,1.4596 5.338033,0 0.542146,-0.5421 1.125991,-1.4179 1.125991,-2.252 l 8.048752,0 0,-14.4293 5.37974,0 c 0,-0.1668 0.16682,-0.6673 0.25022,-0.7924 l -2.41879,-2.1269 c -0.62556,-0.6255 -2.12688,-1.7932 -2.75243,-2.4188 l -1.62643,-1.4179 c -0.12512,-0.083 -0.16682,-0.1668 -0.29193,-0.2502 -0.20851,-0.2085 -0.33362,-0.3336 -0.54214,-0.5004 l -3.00264,-2.6273 c -0.12511,-0.1252 -0.16682,-0.1252 -0.29193,-0.2503 l -6.255505,-5.54651 c -0.125109,-0.083 -0.166813,-0.1668 -0.291922,-0.2502 -0.125114,0.083 -0.166817,0.1668 -0.250224,0.2502 l -7.381497,6.46401 c -0.12511,0.083 -0.166813,0.1668 -0.25022,0.2502 l -0.542144,0.4588 c -0.12511,0.1251 -0.166813,0.1251 -0.291923,0.2502 -0.166814,0.2085 -0.333628,0.3336 -0.542144,0.5004 l -3.836711,3.378 c -0.125111,0.083 -0.166814,0.1251 -0.250221,0.2085 l -4.128634,3.6282 z"
         class="fil1"
         inkscape:connector-curvature="0"
         style="fill:#ffffff;fill-opacity:1;fill-rule:evenodd;stroke:#ffffff;stroke-width:0.50000006;stroke-miterlimit:4;stroke-dasharray:none;stroke-opacity:1" />
      <path
         id="path4329"
         d="m 90.406427,1013.9683 1.918356,-1.7932 c 0.250219,-0.1668 0.500443,-0.3337 0.750662,-0.5005 2.293685,-1.3762 5.921878,-0.9591 7.590015,1.3762 1.16769,1.6682 1.58473,3.8368 0.50044,5.6717 -0.45874,0.7507 -0.79236,1.0426 -1.459618,1.543 l -0.792365,0.6673 c -0.500439,0.4587 -1.042585,0.8341 -1.251101,1.6681 -0.08341,0.2919 -0.08341,1.0426 -0.08341,1.4179 l -3.544786,0 c -0.250219,0 -0.166813,-0.5004 -0.166813,-1.2511 0,-1.3345 0.625549,-1.7515 1.167695,-2.4188 0.458735,-0.6255 0.917474,-0.7089 1.751539,-1.8766 2.085169,-2.9192 -1.209398,-5.2129 -4.295448,-2.5022 l -2.085169,-2.0018 z m -1.334507,0 c 0.08341,0.083 0.291922,0.2502 0.417036,0.3754 0.458735,0.4587 2.710717,2.7107 3.00264,2.9192 0.375333,-0.2919 1.251105,-1.5847 2.752425,-1.5847 0.542142,0 1.2511,0.2919 1.2511,0.834 0,0.709 -0.250219,1.2094 -0.750662,1.7933 -0.08341,0.083 -0.125109,0.083 -0.208516,0.1668 -0.08341,0.1251 -0.08341,0.1251 -0.166813,0.2085 l -1.459617,1.5013 c -0.500442,0.5422 -0.834068,1.2094 -0.917475,2.0852 -0.08341,0.5421 -0.08341,0.8758 -0.0417,1.3762 0.0417,0.5422 -0.0417,1.2928 0.25022,1.2928 l 5.296329,0 c 0,-0.5421 0.0417,-0.9175 0.0417,-1.4596 0,-0.5839 0.0417,-0.9175 0.333626,-1.2094 1.209397,-1.2928 2.126877,-1.5013 3.127757,-3.1278 0.58385,-1.0008 0.70896,-1.8766 0.70896,-3.086 0,-1.6681 -0.83407,-3.1695 -1.96006,-4.2955 -2.585612,-2.5856 -7.21469,-2.2102 -9.508375,0.1252 l -1.793247,1.7515 c -0.166811,0.1251 -0.250218,0.1668 -0.375328,0.3336 z"
         class="fil1"
         inkscape:connector-curvature="0"
         style="fill:#ffffff;fill-opacity:1;fill-rule:evenodd;stroke:#ffffff;stroke-width:0.2;stroke-miterlimit:4;stroke-dasharray:none;stroke-opacity:1" />
    </g>
    <text
       xml:space="preserve"
       style="font-style:normal;font-variant:normal;font-weight:300;font-stretch:normal;font-size:31.75440025px;line-height:100%;font-family:Roboto;-inkscape-font-specification:'Roboto, Light';text-align:start;letter-spacing:0px;word-spacing:0px;writing-mode:lr-tb;text-anchor:start;fill:#ffffff;fill-opacity:1;stroke:none;stroke-width:1.00000012;stroke-linecap:square;stroke-linejoin:miter;stroke-miterlimit:4;stroke-dasharray:none;stroke-opacity:1"
       x="13.612031"
       y="1033.8746"
       id="text4268"
       sodipodi:linespacing="100%"><tspan
         sodipodi:role="line"
         id="tspan4270"
         x="13.612031"
         y="1033.8746"
         style="font-style:normal;font-variant:normal;font-weight:300;font-stretch:normal;font-size:31.75440025px;line-height:100%;font-family:Roboto;-inkscape-font-specification:'Roboto, Light';text-align:start;writing-mode:lr-tb;text-anchor:start;fill:#ffffff;fill-opacity:1;stroke:none;stroke-width:1.00000012;stroke-linecap:square;stroke-linejoin:miter;stroke-miterlimit:4;stroke-dasharray:none;stroke-opacity:1">tany      kost</tspan></text>
  </g>
</svg>
