<?xml version="1.0" encoding="UTF-8" standalone="no"?>
<!-- Created with Inkscape (http://www.inkscape.org/) -->

<svg
   xmlns:dc="http://purl.org/dc/elements/1.1/"
   xmlns:cc="http://creativecommons.org/ns#"
   xmlns:rdf="http://www.w3.org/1999/02/22-rdf-syntax-ns#"
   xmlns:svg="http://www.w3.org/2000/svg"
   xmlns="http://www.w3.org/2000/svg"
   xmlns:sodipodi="http://sodipodi.sourceforge.net/DTD/sodipodi-0.dtd"
   xmlns:inkscape="http://www.inkscape.org/namespaces/inkscape"
   width="206"
   height="60"
   viewBox="0 0 206 60.000001"
   id="svg6274"
   version="1.1"
   inkscape:version="0.91 r"
   sodipodi:docname="logo-takos-baru-1.svg">
  <defs
     id="defs6276" />
  <sodipodi:namedview
     id="base"
     pagecolor="#ffffff"
     bordercolor="#666666"
     borderopacity="1.0"
     inkscape:pageopacity="0.0"
     inkscape:pageshadow="2"
     inkscape:zoom="2.4555388"
     inkscape:cx="163.97192"
     inkscape:cy="36.84883"
     inkscape:document-units="px"
     inkscape:current-layer="layer1"
     showgrid="false"
     units="px"
     inkscape:window-width="1330"
     inkscape:window-height="747"
     inkscape:window-x="36"
     inkscape:window-y="21"
     inkscape:window-maximized="1" />
  <metadata
     id="metadata6279">
    <rdf:RDF>
      <cc:Work
         rdf:about="">
        <dc:format>image/svg+xml</dc:format>
        <dc:type
           rdf:resource="http://purl.org/dc/dcmitype/StillImage" />
        <dc:title></dc:title>
      </cc:Work>
    </rdf:RDF>
  </metadata>
  <g
     inkscape:label="Layer 1"
     inkscape:groupmode="layer"
     id="layer1"
     transform="translate(0,-992.36216)">
    <g
       id="g6960"
       style="fill:#ffffff">
      <g
         transform="matrix(0.65822847,0,0,0.65822847,28.13982,966.58852)"
         id="g4325"
         style="display:inline;opacity:0.98000004;fill:#ffffff">
        <path
           style="fill:#ffffff;fill-opacity:1;fill-rule:evenodd;stroke:none"
           inkscape:connector-curvature="0"
           class="fil1"
           d="m 109.6092,118.57905 c 0,-2.64526 0.42324,-3.91498 2.32783,-5.81957 2.0104,-1.90459 5.0789,-2.43364 7.82997,-1.37553 1.48134,0.52905 2.96269,2.01039 3.59755,3.28012 2.32783,4.23241 -0.21162,10.79266 -6.77187,10.79266 -3.59755,0 -6.98348,-3.28013 -6.98348,-6.87768 z m 7.30092,-73.74984 16.40061,14.390213 c 0.42324,0.529052 0.74067,0.634862 1.16391,1.163914 l 2.53945,2.222018 c 1.79878,1.587156 4.0208,3.280122 5.71376,4.973089 l 10.68685,9.417124 c 0.52905,0.423242 0.74067,0.740673 1.26973,1.163915 l 2.53944,2.222018 -12.59143,0 0,36.610399 -18.09358,0 c 0,-2.22202 -1.79878,-4.97309 -2.96269,-6.0312 -3.91498,-3.38593 -9.31131,-3.38593 -13.33211,0 -1.16391,1.05811 -2.96269,3.80918 -2.96269,6.0312 l -18.093576,0 0,-36.610399 -12.591436,0 c 0.10581,-0.105811 1.058103,-0.952294 1.163914,-1.058104 l 5.60795,-4.973088 c 0.317432,-0.317432 0.423242,-0.317432 0.740673,-0.529052 l 8.782263,-7.829969 c 0.423241,-0.423242 0.740672,-0.740673 1.269724,-1.058104 l 1.904587,-1.692966 c 0.211621,-0.317432 0.317431,-0.317432 0.634863,-0.529052 l 1.798776,-1.692967 c 0.317431,-0.21162 0.423242,-0.21162 0.634863,-0.529052 l 10.157799,-8.888072 c 0.42324,-0.317431 0.74067,-0.740673 1.16391,-1.058104 0.31743,-0.211621 0.42324,-0.423242 0.63486,-0.634863 l 5.18471,-4.444036 c 0.21162,-0.317431 0.31743,-0.423241 0.63487,-0.634862 z M 72.575563,80.698932 c 0.21162,0.317431 0.634862,1.587156 0.740672,2.010397 l 13.54373,0 0,36.610391 20.421405,0 c 0,0.9523 0.63486,2.53945 0.95229,3.28013 0.52906,0.95229 1.16392,1.69296 1.90459,2.43364 3.59755,3.70336 9.94618,3.70336 13.54373,0 1.37554,-1.37554 2.85688,-3.59756 2.85688,-5.71377 l 20.42141,0 0,-36.610391 13.64954,0 c 0,-0.423241 0.42324,-1.692966 0.63486,-2.010397 l -6.137,-5.39633 c -1.58716,-1.587156 -5.39633,-4.549847 -6.98349,-6.137003 l -4.1266,-3.597553 c -0.31744,-0.211621 -0.42325,-0.423241 -0.74068,-0.634862 -0.52905,-0.529052 -0.84648,-0.846483 -1.37553,-1.269725 l -7.61835,-6.666054 c -0.31743,-0.317432 -0.42324,-0.317432 -0.74067,-0.634863 L 117.65079,42.28976 c -0.31743,-0.21162 -0.42324,-0.423241 -0.74067,-0.634862 -0.31744,0.211621 -0.42325,0.423242 -0.63487,0.634862 L 97.546815,58.690371 c -0.317431,0.211621 -0.423242,0.423241 -0.634863,0.634862 l -1.375535,1.163914 c -0.317431,0.317432 -0.423241,0.317432 -0.740672,0.634863 -0.423242,0.529052 -0.846484,0.846483 -1.375535,1.269724 l -9.734556,8.570642 c -0.317432,0.211621 -0.423242,0.317431 -0.634863,0.529052 l -10.475228,9.205504 z"
           id="path4327" />
        <path
           style="fill:#ffffff;fill-opacity:1;fill-rule:evenodd;stroke:none"
           inkscape:connector-curvature="0"
           class="fil1"
           d="m 102.73152,77.842051 4.86728,-4.549846 c 0.63486,-0.423242 1.26973,-0.846483 1.90459,-1.269725 5.81957,-3.491743 15.02507,-2.433639 19.25749,3.491743 2.96269,4.232415 4.02079,9.734556 1.26972,14.390213 -1.16391,1.904587 -2.01039,2.64526 -3.70336,3.914984 l -2.0104,1.692967 c -1.26972,1.163914 -2.64526,2.116207 -3.17431,4.232415 -0.21162,0.740668 -0.21162,2.645258 -0.21162,3.597558 l -8.99388,0 c -0.63486,0 -0.42324,-1.26973 -0.42324,-3.17432 0,-3.385929 1.58715,-4.444033 2.96269,-6.136999 1.16391,-1.587156 2.32783,-1.798777 4.44403,-4.761467 5.29052,-7.406728 -3.0685,-13.226299 -10.89847,-6.348624 l -5.29052,-5.078899 z m -3.385929,0 c 0.211621,0.211621 0.740669,0.634863 1.058109,0.952294 1.16391,1.163914 6.87767,6.877675 7.61834,7.406727 0.9523,-0.740672 3.17432,-4.020795 6.98349,-4.020795 1.37553,0 3.17431,0.740673 3.17431,2.116208 0,1.798777 -0.63486,3.068502 -1.90459,4.549847 -0.21162,0.211621 -0.31743,0.211621 -0.52905,0.423242 -0.21162,0.317431 -0.21162,0.317431 -0.42324,0.529051 L 111.6196,93.6078 c -1.26973,1.375535 -2.11621,3.068501 -2.32783,5.290519 -0.21162,1.375531 -0.21162,2.222021 -0.10581,3.491741 0.10581,1.37554 -0.10581,3.28012 0.63486,3.28012 l 13.43792,0 c 0,-1.37553 0.10581,-2.32782 0.10581,-3.70336 0,-1.48135 0.10581,-2.327828 0.84648,-3.068501 3.0685,-3.280122 5.39633,-3.809174 7.93578,-7.935779 1.48135,-2.53945 1.79878,-4.761468 1.79878,-7.829969 0,-4.232416 -2.11621,-8.04159 -4.97309,-10.89847 -6.56024,-6.560244 -18.3052,-5.607951 -24.12477,0.317431 l -4.54985,4.444036 c -0.423237,0.317431 -0.634857,0.423242 -0.952289,0.846483 z"
           id="path4329" />
      </g>
      <g
         id="text4268"
         style="font-style:normal;font-variant:normal;font-weight:500;font-stretch:normal;font-size:62.99246597px;line-height:125%;font-family:Raleway;-inkscape-font-specification:'Raleway, Medium';text-align:start;letter-spacing:0px;word-spacing:0px;writing-mode:lr-tb;text-anchor:start;fill:#ffffff;fill-opacity:1;stroke:none;stroke-width:1px;stroke-linecap:butt;stroke-linejoin:miter;stroke-opacity:1">
        <path
           id="path6944"
           style="font-style:normal;font-variant:normal;font-weight:300;font-stretch:normal;font-size:36px;line-height:125%;font-family:Roboto;-inkscape-font-specification:'Roboto, Light';text-align:start;writing-mode:lr-tb;text-anchor:start;fill:#ffffff;fill-opacity:1"
           d="m 12.305905,1017.1268 0,4.8692 4.183594,0 0,1.7226 -4.183594,0 0,12.3926 q 0,1.8633 0.667969,2.6543 0.685547,0.7734 1.810547,0.7734 0.509766,0 0.984375,-0.035 0.492187,-0.053 1.125,-0.1582 l 0.316406,1.5644 q -0.527344,0.2285 -1.283203,0.3516 -0.755859,0.123 -1.511719,0.123 -2.003906,0 -3.128906,-1.2656 -1.107422,-1.2656 -1.107422,-4.0078 l 0,-12.3926 -3.2871092,0 0,-1.7226 3.2871092,0 0,-4.8692 2.126953,0 z" />
        <path
           id="path6946"
           style="font-style:normal;font-variant:normal;font-weight:300;font-stretch:normal;font-size:36px;line-height:125%;font-family:Roboto;-inkscape-font-specification:'Roboto, Light';text-align:start;writing-mode:lr-tb;text-anchor:start;fill:#ffffff;fill-opacity:1"
           d="m 32.995358,1041.0155 q -0.210937,-0.9668 -0.298828,-1.6699 -0.08789,-0.7031 -0.08789,-1.4238 -1.054688,1.4941 -2.8125,2.4785 -1.757813,0.9843 -3.955078,0.9843 -2.777344,0 -4.324219,-1.4765 -1.529297,-1.4766 -1.529297,-3.9551 0,-2.6367 2.267578,-4.2187 2.285156,-1.5821 6.152344,-1.5821 l 4.201172,0 0,-2.3554 q 0,-2.0391 -1.31836,-3.1993 -1.300781,-1.1601 -3.65625,-1.1601 -2.197265,0 -3.65625,1.1074 -1.441406,1.1074 -1.441406,2.707 l -1.933594,-0.017 -0.03516,-0.1055 q -0.105469,-2.127 1.933594,-3.7969 2.05664,-1.6875 5.220703,-1.6875 3.146484,0 5.0625,1.5996 1.916016,1.5996 1.916016,4.5879 l 0,9.3516 q 0,1.0019 0.105468,1.9511 0.123047,0.9493 0.386719,1.8809 l -2.197266,0 z m -6.908203,-1.4941 q 2.267578,0 4.007813,-1.0547 1.740234,-1.0723 2.513672,-2.7246 l 0,-3.9727 -4.236328,0 q -2.865235,0 -4.587891,1.2305 -1.705078,1.2129 -1.705078,3.0234 0,1.5469 1.054687,2.5313 1.072266,0.9668 2.953125,0.9668 z" />
        <path
           id="path6948"
           style="font-style:normal;font-variant:normal;font-weight:300;font-stretch:normal;font-size:36px;line-height:125%;font-family:Roboto;-inkscape-font-specification:'Roboto, Light';text-align:start;writing-mode:lr-tb;text-anchor:start;fill:#ffffff;fill-opacity:1"
           d="m 42.153562,1021.996 0.193359,3.3222 q 0.914062,-1.7578 2.460937,-2.707 1.564454,-0.9668 3.691407,-0.9668 3.09375,0 4.710937,1.8984 1.617188,1.8809 1.617188,5.8887 l 0,11.584 -2.109375,0 0,-11.5664 q 0,-3.2695 -1.230469,-4.6231 -1.212891,-1.3535 -3.462891,-1.3535 -2.214843,0 -3.621093,1.1778 -1.388672,1.1601 -2.003907,3.0937 l 0,13.2715 -2.109375,0 0,-19.0195 1.863282,0 z" />
        <path
           id="path6950"
           style="font-style:normal;font-variant:normal;font-weight:300;font-stretch:normal;font-size:36px;line-height:125%;font-family:Roboto;-inkscape-font-specification:'Roboto, Light';text-align:start;writing-mode:lr-tb;text-anchor:start;fill:#ffffff;fill-opacity:1"
           d="m 65.725827,1035.8651 0.667969,2.2676 0.105469,0 5.748047,-16.1367 2.355468,0 -8.261718,22.0605 q -0.738282,1.9336 -1.916016,3.2871 -1.177734,1.3535 -3.445313,1.3535 -0.36914,0 -0.896484,-0.088 -0.527344,-0.07 -0.773437,-0.1583 l 0.246093,-1.7578 q 0.210938,0.035 0.667969,0.07 0.474609,0.053 0.685547,0.053 1.371094,0 2.197266,-0.9844 0.826171,-0.9668 1.40625,-2.4961 l 1.001953,-2.5664 -7.347657,-18.7734 2.337891,0 5.220703,13.8691 z" />
        <path
           id="path6952"
           style="font-style:normal;font-variant:normal;font-weight:300;font-stretch:normal;font-size:36px;line-height:125%;font-family:Roboto;-inkscape-font-specification:'Roboto, Light';text-align:start;writing-mode:lr-tb;text-anchor:start;fill:#ffffff;fill-opacity:1"
           d="m 144.05395,1031.7518 -2.42578,0 0,9.2637 -2.10937,0 0,-27.4219 2.10937,0 0,16.3477 2.21484,0 7.06641,-7.9453 2.46094,0 0.0351,0.088 -7.61132,8.5781 8.40234,10.2656 -0.0527,0.088 -2.40821,0 -7.68164,-9.2637 z" />
        <path
           id="path6954"
           style="font-style:normal;font-variant:normal;font-weight:300;font-stretch:normal;font-size:36px;line-height:125%;font-family:Roboto;-inkscape-font-specification:'Roboto, Light';text-align:start;writing-mode:lr-tb;text-anchor:start;fill:#ffffff;fill-opacity:1"
           d="m 156.04223,1031.2245 q 0,-4.2012 2.30274,-6.8906 2.30273,-2.6895 6.09961,-2.6895 3.81445,0 6.11718,2.6895 2.30274,2.6894 2.30274,6.8906 l 0,0.5801 q 0,4.2187 -2.30274,6.9082 -2.28515,2.6718 -6.08203,2.6718 -3.83203,0 -6.13476,-2.6718 -2.30274,-2.6895 -2.30274,-6.9082 l 0,-0.5801 z m 2.10938,0.5801 q 0,3.3047 1.66992,5.5547 1.66992,2.25 4.6582,2.25 2.93555,0 4.60547,-2.25 1.6875,-2.25 1.6875,-5.5547 l 0,-0.5801 q 0,-3.252 -1.6875,-5.5195 -1.6875,-2.2676 -4.64062,-2.2676 -2.95313,0 -4.62305,2.2676 -1.66992,2.2675 -1.66992,5.5195 l 0,0.5801 z" />
        <path
           id="path6956"
           style="font-style:normal;font-variant:normal;font-weight:300;font-stretch:normal;font-size:36px;line-height:125%;font-family:Roboto;-inkscape-font-specification:'Roboto, Light';text-align:start;writing-mode:lr-tb;text-anchor:start;fill:#ffffff;fill-opacity:1"
           d="m 188.64966,1036.1815 q 0,-1.3359 -1.10743,-2.3379 -1.08984,-1.0019 -3.95507,-1.6347 -3.41016,-0.7383 -5.04493,-1.9512 -1.61718,-1.2129 -1.61718,-3.4277 0,-2.1797 1.82812,-3.6739 1.8457,-1.5117 4.86914,-1.5117 3.2168,0 5.09766,1.5996 1.88086,1.582 1.79297,3.9727 l -0.0352,0.1054 -1.95117,0 q 0,-1.5644 -1.33594,-2.7246 -1.31836,-1.1601 -3.56836,-1.1601 -2.30273,0 -3.46289,1.0019 -1.14258,0.9844 -1.14258,2.3203 0,1.3184 0.98438,2.1797 1.00195,0.8614 3.97265,1.5117 3.39258,0.7559 5.08008,2.0743 1.6875,1.3007 1.6875,3.5507 0,2.3731 -1.93359,3.8497 -1.91602,1.4589 -5.08008,1.4589 -3.46289,0 -5.44922,-1.6523 -1.96875,-1.6523 -1.86328,-3.9375 l 0.0352,-0.1055 1.93359,0 q 0.12305,2.0567 1.66992,2.9883 1.56446,0.9317 3.67383,0.9317 2.28516,0 3.60352,-1.002 1.31836,-1.002 1.31836,-2.4258 z" />
        <path
           id="path6958"
           style="font-style:normal;font-variant:normal;font-weight:300;font-stretch:normal;font-size:36px;line-height:125%;font-family:Roboto;-inkscape-font-specification:'Roboto, Light';text-align:start;writing-mode:lr-tb;text-anchor:start;fill:#ffffff;fill-opacity:1"
           d="m 198.91528,1017.1268 0,4.8692 4.18359,0 0,1.7226 -4.18359,0 0,12.3926 q 0,1.8633 0.66797,2.6543 0.68555,0.7734 1.81055,0.7734 0.50976,0 0.98437,-0.035 0.49219,-0.053 1.125,-0.1582 l 0.31641,1.5644 q -0.52735,0.2285 -1.28321,0.3516 -0.75586,0.123 -1.51171,0.123 -2.00391,0 -3.12891,-1.2656 -1.10742,-1.2656 -1.10742,-4.0078 l 0,-12.3926 -3.28711,0 0,-1.7226 3.28711,0 0,-4.8692 2.12695,0 z" />
      </g>
    </g>
  </g>
</svg>
