<?xml version="1.0" encoding="UTF-8" standalone="no"?>
<!-- Created with Inkscape (http://www.inkscape.org/) -->

<svg
   xmlns:dc="http://purl.org/dc/elements/1.1/"
   xmlns:cc="http://creativecommons.org/ns#"
   xmlns:rdf="http://www.w3.org/1999/02/22-rdf-syntax-ns#"
   xmlns:svg="http://www.w3.org/2000/svg"
   xmlns="http://www.w3.org/2000/svg"
   xmlns:sodipodi="http://sodipodi.sourceforge.net/DTD/sodipodi-0.dtd"
   xmlns:inkscape="http://www.inkscape.org/namespaces/inkscape"
   width="274.59528"
   height="40.000004"
   viewBox="0 0 274.59527 40.000005"
   id="svg4222"
   version="1.1"
   inkscape:version="0.91 r"
   sodipodi:docname="logo-takos-2.svg">
  <defs
     id="defs4224" />
  <sodipodi:namedview
     id="base"
     pagecolor="#e01010"
     bordercolor="#666666"
     borderopacity="1.0"
     inkscape:pageopacity="0"
     inkscape:pageshadow="2"
     inkscape:zoom="3.4726562"
     inkscape:cx="141.90955"
     inkscape:cy="9.2249167"
     inkscape:document-units="px"
     inkscape:current-layer="layer1"
     showgrid="false"
     units="px"
     borderlayer="false"
     fit-margin-top="0"
     fit-margin-left="0"
     fit-margin-right="0"
     fit-margin-bottom="0"
     inkscape:window-width="1330"
     inkscape:window-height="747"
     inkscape:window-x="36"
     inkscape:window-y="21"
     inkscape:window-maximized="1" />
  <metadata
     id="metadata4227">
    <rdf:RDF>
      <cc:Work
         rdf:about="">
        <dc:format>image/svg+xml</dc:format>
        <dc:type
           rdf:resource="http://purl.org/dc/dcmitype/StillImage" />
        <dc:title></dc:title>
      </cc:Work>
    </rdf:RDF>
  </metadata>
  <g
     inkscape:label="Layer 1"
     inkscape:groupmode="layer"
     id="layer1"
     transform="translate(-158.72935,-1002.4139)">
    <g
       transform="matrix(0.4642735,0,0,0.4642735,125.03444,983.07468)"
       id="g3978"
       style="display:inline;opacity:1;fill:#ffffff;stroke-width:1.0136013;stroke-miterlimit:4;stroke-dasharray:none">
      <path
         style="fill:#ffffff;fill-opacity:1;fill-rule:evenodd;stroke:none;stroke-width:1.0136013;stroke-miterlimit:4;stroke-dasharray:none"
         inkscape:connector-curvature="0"
         class="fil1"
         d="m 109.6092,118.57905 c 0,-2.64526 0.42324,-3.91498 2.32783,-5.81957 2.0104,-1.90459 5.0789,-2.43364 7.82997,-1.37553 1.48134,0.52905 2.96269,2.01039 3.59755,3.28012 2.32783,4.23241 -0.21162,10.79266 -6.77187,10.79266 -3.59755,0 -6.98348,-3.28013 -6.98348,-6.87768 z m 7.30092,-73.74984 16.40061,14.390213 c 0.42324,0.529052 0.74067,0.634862 1.16391,1.163914 l 2.53945,2.222018 c 1.79878,1.587156 4.0208,3.280122 5.71376,4.973089 l 10.68685,9.417124 c 0.52905,0.423242 0.74067,0.740673 1.26973,1.163915 l 2.53944,2.222018 -12.59143,0 0,36.610399 -18.09358,0 c 0,-2.22202 -1.79878,-4.97309 -2.96269,-6.0312 -3.91498,-3.38593 -9.31131,-3.38593 -13.33211,0 -1.16391,1.05811 -2.96269,3.80918 -2.96269,6.0312 l -18.093576,0 0,-36.610399 -12.591436,0 c 0.10581,-0.105811 1.058103,-0.952294 1.163914,-1.058104 l 5.60795,-4.973088 c 0.317432,-0.317432 0.423242,-0.317432 0.740673,-0.529052 l 8.782263,-7.829969 c 0.423241,-0.423242 0.740672,-0.740673 1.269724,-1.058104 l 1.904587,-1.692966 c 0.211621,-0.317432 0.317431,-0.317432 0.634863,-0.529052 l 1.798776,-1.692967 c 0.317431,-0.21162 0.423242,-0.21162 0.634863,-0.529052 l 10.157799,-8.888072 c 0.42324,-0.317431 0.74067,-0.740673 1.16391,-1.058104 0.31743,-0.211621 0.42324,-0.423242 0.63486,-0.634863 l 5.18471,-4.444036 c 0.21162,-0.317431 0.31743,-0.423241 0.63487,-0.634862 z M 72.575563,80.698932 c 0.21162,0.317431 0.634862,1.587156 0.740672,2.010397 l 13.54373,0 0,36.610391 20.421405,0 c 0,0.9523 0.63486,2.53945 0.95229,3.28013 0.52906,0.95229 1.16392,1.69296 1.90459,2.43364 3.59755,3.70336 9.94618,3.70336 13.54373,0 1.37554,-1.37554 2.85688,-3.59756 2.85688,-5.71377 l 20.42141,0 0,-36.610391 13.64954,0 c 0,-0.423241 0.42324,-1.692966 0.63486,-2.010397 l -6.137,-5.39633 c -1.58716,-1.587156 -5.39633,-4.549847 -6.98349,-6.137003 l -4.1266,-3.597553 c -0.31744,-0.211621 -0.42325,-0.423241 -0.74068,-0.634862 -0.52905,-0.529052 -0.84648,-0.846483 -1.37553,-1.269725 l -7.61835,-6.666054 c -0.31743,-0.317432 -0.42324,-0.317432 -0.74067,-0.634863 L 117.65079,42.28976 c -0.31743,-0.21162 -0.42324,-0.423241 -0.74067,-0.634862 -0.31744,0.211621 -0.42325,0.423242 -0.63487,0.634862 L 97.546815,58.690371 c -0.317431,0.211621 -0.423242,0.423241 -0.634863,0.634862 l -1.375535,1.163914 c -0.317431,0.317432 -0.423241,0.317432 -0.740672,0.634863 -0.423242,0.529052 -0.846484,0.846483 -1.375535,1.269724 l -9.734556,8.570642 c -0.317432,0.211621 -0.423242,0.317431 -0.634863,0.529052 l -10.475228,9.205504 z"
         id="path3084" />
      <path
         style="fill:#ffffff;fill-opacity:1;fill-rule:evenodd;stroke:none;stroke-width:1.0136013;stroke-miterlimit:4;stroke-dasharray:none"
         inkscape:connector-curvature="0"
         class="fil1"
         d="m 102.73152,77.842051 4.86728,-4.549846 c 0.63486,-0.423242 1.26973,-0.846483 1.90459,-1.269725 5.81957,-3.491743 15.02507,-2.433639 19.25749,3.491743 2.96269,4.232415 4.02079,9.734556 1.26972,14.390213 -1.16391,1.904587 -2.01039,2.64526 -3.70336,3.914984 l -2.0104,1.692967 c -1.26972,1.163914 -2.64526,2.116207 -3.17431,4.232415 -0.21162,0.740668 -0.21162,2.645258 -0.21162,3.597558 l -8.99388,0 c -0.63486,0 -0.42324,-1.26973 -0.42324,-3.17432 0,-3.385929 1.58715,-4.444033 2.96269,-6.136999 1.16391,-1.587156 2.32783,-1.798777 4.44403,-4.761467 5.29052,-7.406728 -3.0685,-13.226299 -10.89847,-6.348624 l -5.29052,-5.078899 z m -3.385929,0 c 0.211621,0.211621 0.740669,0.634863 1.058109,0.952294 1.16391,1.163914 6.87767,6.877675 7.61834,7.406727 0.9523,-0.740672 3.17432,-4.020795 6.98349,-4.020795 1.37553,0 3.17431,0.740673 3.17431,2.116208 0,1.798777 -0.63486,3.068502 -1.90459,4.549847 -0.21162,0.211621 -0.31743,0.211621 -0.52905,0.423242 -0.21162,0.317431 -0.21162,0.317431 -0.42324,0.529051 L 111.6196,93.6078 c -1.26973,1.375535 -2.11621,3.068501 -2.32783,5.290519 -0.21162,1.375531 -0.21162,2.222021 -0.10581,3.491741 0.10581,1.37554 -0.10581,3.28012 0.63486,3.28012 l 13.43792,0 c 0,-1.37553 0.10581,-2.32782 0.10581,-3.70336 0,-1.48135 0.10581,-2.327828 0.84648,-3.068501 3.0685,-3.280122 5.39633,-3.809174 7.93578,-7.935779 1.48135,-2.53945 1.79878,-4.761468 1.79878,-7.829969 0,-4.232416 -2.11621,-8.04159 -4.97309,-10.89847 -6.56024,-6.560244 -18.3052,-5.607951 -24.12477,0.317431 l -4.54985,4.444036 c -0.423237,0.317431 -0.634857,0.423242 -0.952289,0.846483 z"
         id="path3086" />
    </g>
    <text
       xml:space="preserve"
       style="font-style:normal;font-variant:normal;font-weight:300;font-stretch:normal;font-size:30.76614952px;line-height:125%;font-family:Roboto;-inkscape-font-specification:'Roboto, Light';text-align:start;letter-spacing:0px;word-spacing:0px;writing-mode:lr-tb;text-anchor:start;fill:#ffffff;fill-opacity:1;stroke:none;stroke-width:1px;stroke-linecap:butt;stroke-linejoin:miter;stroke-opacity:1;"
       x="201.76503"
       y="1035.8491"
       id="text3350"
       sodipodi:linespacing="125%"><tspan
         sodipodi:role="line"
         id="tspan3352"
         x="201.76503"
         y="1035.8491"
         style="font-style:normal;font-variant:normal;font-weight:300;font-stretch:normal;font-size:30.76614952px;line-height:125%;font-family:Roboto;-inkscape-font-specification:'Roboto, Light';text-align:start;letter-spacing:0px;writing-mode:lr-tb;text-anchor:start;fill:#ffffff;fill-opacity:1;stroke:none;stroke-opacity:1;">tanyakost.com</tspan></text>
  </g>
</svg>
